<?xml version="1.0" encoding="utf-8"?>
<!-- Generator: Adobe Illustrator 23.0.3, SVG Export Plug-In . SVG Version: 6.00 Build 0)  -->
<svg version="1.1" xmlns="http://www.w3.org/2000/svg" xmlns:xlink="http://www.w3.org/1999/xlink" x="0px" y="0px"
	 viewBox="0 0 2000 2000" style="enable-background:new 0 0 2000 2000;" xml:space="preserve">
<style type="text/css">
	.st0{display:none;opacity:0.1;fill:none;stroke:#ED1C24;stroke-width:3;stroke-miterlimit:10;}
</style>
<g id="Layer_1">
	<g id="K">
		<g>
			<path d="M252.65,831.7c61.78,0,70.48-33.94,70.48-64.39c0-24.37-3.48-48.73-6.96-73.09c-3.48-24.37-6.96-47.86-6.96-72.22
				c0-80.05,52.21-113.99,126.17-113.99h18.27v47.86H438c-51.34,0-68.74,27.85-68.74,74.83c0,20.01,2.61,40.9,6.09,61.78
				c3.48,21.75,6.09,42.64,6.09,66.13c0.87,55.69-23.49,83.54-62.65,93.98v1.74c39.16,9.57,63.52,39.16,62.65,94.85
				c0,23.49-2.61,45.25-6.09,66.13c-3.48,21.75-6.09,41.77-6.09,62.65c0,48.73,20.01,75.7,68.74,75.7h15.66v47.86h-18.27
				c-72.22,0-126.17-31.33-126.17-119.21c0-23.49,3.48-47.86,6.96-71.35c3.48-23.49,6.96-46.99,6.96-70.48
				c0-26.98-8.7-64.39-70.48-64.39V831.7z"/>
		</g>
		<g>
			<path d="M420.35,823.49L805.76,508v91.08L480.98,857.81v2.64l324.77,258.73v91.08L420.35,894.77V823.49z"/>
		</g>
	</g>
	<g id="K_1_">
		<g>
			<path d="M1667.67,876.08c-61.78,0-70.48,37.42-70.48,64.39c0,23.49,3.48,46.99,6.96,70.48c3.48,23.49,6.96,47.86,6.96,71.35
				c0,87.89-53.95,119.21-126.17,119.21h-18.27v-47.86h15.66c48.73,0,68.74-26.97,68.74-75.7c0-20.88-2.61-40.9-6.09-62.65
				c-3.48-20.88-6.09-42.64-6.09-66.13c-0.87-55.69,23.49-85.28,62.65-94.85v-1.74c-39.16-10.44-63.52-38.29-62.65-93.98
				c0-23.49,2.61-44.38,6.09-66.13c3.48-20.88,6.09-41.77,6.09-61.78c0-46.99-17.4-74.83-68.74-74.83h-15.66V508h18.27
				c73.96,0,126.17,33.94,126.17,113.99c0,24.36-3.48,47.86-6.96,72.22c-3.48,24.36-6.96,48.73-6.96,73.09
				c0,30.46,8.7,64.39,70.48,64.39V876.08z"/>
		</g>
		<g>
			<path d="M1499.97,894.77l-385.41,315.49v-91.08l324.77-258.73v-2.64l-324.77-258.73V508l385.41,315.49V894.77z"/>
		</g>
	</g>
	<g>
		<path d="M805.76,1119.18L1082.49,508l32.07,91.08l-276.74,611.18L805.76,1119.18z"/>
	</g>
	<polygon points="1114.57,599.08 1114.57,508 1082.49,508"/>
	<polygon points="805.76,1119.18 805.76,1210.26 837.83,1210.26 	"/>
</g>
<g id="Layer_2">
	<line class="st0" x1="182.89" y1="508" x2="1316.22" y2="508"/>
	<line class="st0" x1="182.89" y1="901.33" x2="1316.22" y2="901.33"/>
</g>
</svg>
